<?xml version="1.0" encoding="UTF-8"?>
<svg xmlns="http://www.w3.org/2000/svg" viewBox="0 0 1926 280" role="img" aria-label="matthitchman.com">
  <title>matthitchman.com</title>
  <path d="M115.31 190L81.23 190L81.23 80.82L112.58 80.82L114.14 102.50Q118.63 90.20 127.18 84.78Q135.72 79.36 145.59 79.36L145.59 79.36Q155.94 79.36 162.82 85.31Q169.71 91.27 173.71 104.65L173.71 104.65Q178.69 91.17 188.41 85.26Q198.13 79.36 209.16 79.36L209.16 79.36Q224.49 79.36 234.31 89.22Q244.12 99.08 244.12 116.37L244.12 116.37L244.12 190L210.14 190L210.14 124.08Q210.14 115.78 205.79 111.48Q201.45 107.19 194.71 107.19L194.71 107.19Q187.48 107.19 183.28 111.92Q179.08 116.66 179.08 124.47L179.08 124.47L179.08 190L146.37 190L146.37 123.59Q146.37 116.07 142.12 111.63Q137.87 107.19 131.13 107.19L131.13 107.19Q124.20 107.19 119.76 111.88Q115.31 116.56 115.31 125.16L115.31 125.16L115.31 190Z M290.25 191.95L290.25 191.95Q274.52 191.95 264.42 183.95Q254.31 175.94 254.31 159.73L254.31 159.73Q254.31 147.62 259.88 140.49Q265.44 133.36 274.67 129.94Q283.90 126.52 294.93 125.55L294.93 125.55Q308.80 124.38 314.81 122.67Q320.81 120.96 320.81 115.88L320.81 115.88L320.81 115.49Q320.81 109.82 316.86 106.75Q312.90 103.67 305.97 103.67L305.97 103.67Q298.84 103.67 294.25 106.70Q289.66 109.73 288.29 114.90L288.29 114.90L257.43 110.90Q260.66 96.93 273.21 88.19Q285.75 79.45 306.26 79.45L306.26 79.45Q319.84 79.45 330.82 83.65Q341.81 87.85 348.30 96.01Q354.80 104.16 354.80 115.88L354.80 115.88L354.80 190L322.77 190L322.77 174.67L321.89 174.67Q312.80 191.95 290.25 191.95ZM300.60 169.39L300.60 169.39Q309.19 169.39 315.15 164.32Q321.11 159.24 321.11 151.13L321.11 151.13L321.11 140.68Q318.18 142.25 312.61 143.32Q307.04 144.39 302.26 145.18L302.26 145.18Q286.54 147.52 286.54 158.16L286.54 158.16Q286.54 163.63 290.49 166.51Q294.45 169.39 300.60 169.39Z M409.61 80.82L429.24 80.82L429.24 106.11L409.61 106.11L409.61 156.60Q409.61 165.10 418.30 165.10L418.30 165.10Q420.06 165.10 423.24 164.66Q426.41 164.22 427.78 163.93L427.78 163.93L432.17 188.73Q426.41 190.39 421.04 190.98Q415.67 191.56 410.88 191.56L410.88 191.56Q393.50 191.56 384.52 183.41Q375.53 175.25 375.53 159.63L375.53 159.63L375.53 106.11L361.08 106.11L361.08 80.82L375.53 80.82L375.53 54.84L409.61 54.84L409.61 80.82Z M478.98 80.82L498.61 80.82L498.61 106.11L478.98 106.11L478.98 156.60Q478.98 165.10 487.67 165.10L487.67 165.10Q489.43 165.10 492.60 164.66Q495.78 164.22 497.14 163.93L497.14 163.93L501.54 188.73Q495.78 190.39 490.41 190.98Q485.04 191.56 480.25 191.56L480.25 191.56Q462.87 191.56 453.88 183.41Q444.90 175.25 444.90 159.63L444.90 159.63L444.90 106.11L430.45 106.11L430.45 80.82L444.90 80.82L444.90 54.84L478.98 54.84L478.98 80.82Z M543.17 127.70L543.17 127.70L543.17 190L509.09 190L509.09 44.49L542.49 44.49L542.49 102.50Q546.88 91.95 555.04 85.70Q563.19 79.45 575.89 79.45L575.89 79.45Q592.98 79.45 603.33 90.68Q613.68 101.91 613.68 120.47L613.68 120.47L613.68 190L579.60 190L579.60 127.11Q579.60 117.93 574.91 112.71Q570.22 107.48 561.82 107.48L561.82 107.48Q553.52 107.48 548.35 112.80Q543.17 118.13 543.17 127.70Z M663.22 190L629.14 190L629.14 80.82L663.22 80.82L663.22 190ZM646.13 68.03L646.13 68.03Q638.91 68.03 633.73 63.24Q628.55 58.46 628.55 51.62L628.55 51.62Q628.55 44.79 633.73 40Q638.91 35.21 646.13 35.21L646.13 35.21Q653.46 35.21 658.63 40Q663.81 44.79 663.81 51.62L663.81 51.62Q663.81 58.46 658.63 63.24Q653.46 68.03 646.13 68.03Z M718.04 80.82L737.67 80.82L737.67 106.11L718.04 106.11L718.04 156.60Q718.04 165.10 726.73 165.10L726.73 165.10Q728.49 165.10 731.66 164.66Q734.84 164.22 736.20 163.93L736.20 163.93L740.60 188.73Q734.84 190.39 729.46 190.98Q724.09 191.56 719.31 191.56L719.31 191.56Q701.93 191.56 692.94 183.41Q683.96 175.25 683.96 159.63L683.96 159.63L683.96 106.11L669.50 106.11L669.50 80.82L683.96 80.82L683.96 54.84L718.04 54.84L718.04 80.82Z M798.83 192.05L798.83 192.05Q781.74 192.05 769.44 184.97Q757.13 177.89 750.54 165.24Q743.95 152.60 743.95 135.80L743.95 135.80Q743.95 119.00 750.54 106.31Q757.13 93.61 769.44 86.53Q781.74 79.45 798.83 79.45L798.83 79.45Q819.73 79.45 833.16 89.90Q846.59 100.35 849.13 118.22L849.13 118.22L817.68 123.50Q816.02 114.90 811.38 110.21Q806.74 105.53 799.22 105.53L799.22 105.53Q789.46 105.53 784.09 113.49Q778.71 121.45 778.71 135.61L778.71 135.61Q778.71 149.67 784.09 157.82Q789.46 165.98 799.22 165.98L799.22 165.98Q806.74 165.98 811.48 161.09Q816.21 156.21 817.78 147.42L817.78 147.42L849.22 152.50Q846.68 170.86 833.30 181.46Q819.93 192.05 798.83 192.05Z M894.27 127.70L894.27 127.70L894.27 190L860.19 190L860.19 44.49L893.59 44.49L893.59 102.50Q897.98 91.95 906.14 85.70Q914.29 79.45 926.99 79.45L926.99 79.45Q944.08 79.45 954.43 90.68Q964.78 101.91 964.78 120.47L964.78 120.47L964.78 190L930.70 190L930.70 127.11Q930.70 117.93 926.01 112.71Q921.32 107.48 912.93 107.48L912.93 107.48Q904.63 107.48 899.45 112.80Q894.27 118.13 894.27 127.70Z M1014.32 190L980.24 190L980.24 80.82L1011.59 80.82L1013.15 102.50Q1017.64 90.20 1026.19 84.78Q1034.73 79.36 1044.60 79.36L1044.60 79.36Q1054.95 79.36 1061.83 85.31Q1068.72 91.27 1072.72 104.65L1072.72 104.65Q1077.70 91.17 1087.42 85.26Q1097.14 79.36 1108.17 79.36L1108.17 79.36Q1123.50 79.36 1133.32 89.22Q1143.13 99.08 1143.13 116.37L1143.13 116.37L1143.13 190L1109.15 190L1109.15 124.08Q1109.15 115.78 1104.80 111.48Q1100.46 107.19 1093.72 107.19L1093.72 107.19Q1086.49 107.19 1082.29 111.92Q1078.09 116.66 1078.09 124.47L1078.09 124.47L1078.09 190L1045.38 190L1045.38 123.59Q1045.38 116.07 1041.13 111.63Q1036.88 107.19 1030.14 107.19L1030.14 107.19Q1023.21 107.19 1018.77 111.88Q1014.32 116.56 1014.32 125.16L1014.32 125.16L1014.32 190Z M1189.26 191.95L1189.26 191.95Q1173.54 191.95 1163.43 183.95Q1153.32 175.94 1153.32 159.73L1153.32 159.73Q1153.32 147.62 1158.89 140.49Q1164.45 133.36 1173.68 129.94Q1182.91 126.52 1193.95 125.55L1193.95 125.55Q1207.81 124.38 1213.82 122.67Q1219.82 120.96 1219.82 115.88L1219.82 115.88L1219.82 115.49Q1219.82 109.82 1215.87 106.75Q1211.91 103.67 1204.98 103.67L1204.98 103.67Q1197.85 103.67 1193.26 106.70Q1188.67 109.73 1187.30 114.90L1187.30 114.90L1156.45 110.90Q1159.67 96.93 1172.22 88.19Q1184.77 79.45 1205.27 79.45L1205.27 79.45Q1218.85 79.45 1229.83 83.65Q1240.82 87.85 1247.31 96.01Q1253.81 104.16 1253.81 115.88L1253.81 115.88L1253.81 190L1221.78 190L1221.78 174.67L1220.90 174.67Q1211.82 191.95 1189.26 191.95ZM1199.61 169.39L1199.61 169.39Q1208.20 169.39 1214.16 164.32Q1220.12 159.24 1220.12 151.13L1220.12 151.13L1220.12 140.68Q1217.19 142.25 1211.62 143.32Q1206.05 144.39 1201.27 145.18L1201.27 145.18Q1185.55 147.52 1185.55 158.16L1185.55 158.16Q1185.55 163.63 1189.50 166.51Q1193.46 169.39 1199.61 169.39Z M1303.45 127.70L1303.45 127.70L1303.45 190L1269.37 190L1269.37 80.82L1301.40 80.82L1301.98 104.36Q1306.28 93.03 1314.58 86.24Q1322.88 79.45 1336.16 79.45L1336.16 79.45Q1353.25 79.45 1363.61 90.68Q1373.96 101.91 1373.96 120.47L1373.96 120.47L1373.96 190L1339.88 190L1339.88 127.11Q1339.88 117.93 1335.19 112.71Q1330.50 107.48 1322.10 107.48L1322.10 107.48Q1313.80 107.48 1308.63 112.80Q1303.45 118.13 1303.45 127.70Z M1503.61 192.05L1503.61 192.05Q1486.52 192.05 1474.21 184.97Q1461.91 177.89 1455.32 165.24Q1448.73 152.60 1448.73 135.80L1448.73 135.80Q1448.73 119.00 1455.32 106.31Q1461.91 93.61 1474.21 86.53Q1486.52 79.45 1503.61 79.45L1503.61 79.45Q1524.51 79.45 1537.94 89.90Q1551.36 100.35 1553.90 118.22L1553.90 118.22L1522.46 123.50Q1520.80 114.90 1516.16 110.21Q1511.52 105.53 1504 105.53L1504 105.53Q1494.23 105.53 1488.86 113.49Q1483.49 121.45 1483.49 135.61L1483.49 135.61Q1483.49 149.67 1488.86 157.82Q1494.23 165.98 1504 165.98L1504 165.98Q1511.52 165.98 1516.26 161.09Q1520.99 156.21 1522.55 147.42L1522.55 147.42L1554 152.50Q1551.46 170.86 1538.08 181.46Q1524.70 192.05 1503.61 192.05Z M1615.65 192.05L1615.65 192.05Q1598.56 192.05 1586.26 184.97Q1573.95 177.89 1567.36 165.24Q1560.77 152.60 1560.77 135.80L1560.77 135.80Q1560.77 119.00 1567.36 106.31Q1573.95 93.61 1586.26 86.53Q1598.56 79.45 1615.65 79.45L1615.65 79.45Q1632.74 79.45 1645.00 86.53Q1657.25 93.61 1663.85 106.31Q1670.44 119.00 1670.44 135.80L1670.44 135.80Q1670.44 152.60 1663.85 165.24Q1657.25 177.89 1645.00 184.97Q1632.74 192.05 1615.65 192.05ZM1615.65 165.98L1615.65 165.98Q1625.42 165.98 1630.59 157.63Q1635.77 149.28 1635.77 135.61L1635.77 135.61Q1635.77 121.93 1630.59 113.73Q1625.42 105.53 1615.65 105.53L1615.65 105.53Q1605.89 105.53 1600.71 113.73Q1595.54 121.93 1595.54 135.61L1595.54 135.61Q1595.54 149.28 1600.71 157.63Q1605.89 165.98 1615.65 165.98Z M1715.88 190L1681.80 190L1681.80 80.82L1713.14 80.82L1714.71 102.50Q1719.20 90.20 1727.74 84.78Q1736.29 79.36 1746.15 79.36L1746.15 79.36Q1756.50 79.36 1763.39 85.31Q1770.27 91.27 1774.28 104.65L1774.28 104.65Q1779.26 91.17 1788.97 85.26Q1798.69 79.36 1809.73 79.36L1809.73 79.36Q1825.06 79.36 1834.87 89.22Q1844.69 99.08 1844.69 116.37L1844.69 116.37L1844.69 190L1810.70 190L1810.70 124.08Q1810.70 115.78 1806.36 111.48Q1802.01 107.19 1795.27 107.19L1795.27 107.19Q1788.05 107.19 1783.85 111.92Q1779.65 116.66 1779.65 124.47L1779.65 124.47L1779.65 190L1746.93 190L1746.93 123.59Q1746.93 116.07 1742.69 111.63Q1738.44 107.19 1731.70 107.19L1731.70 107.19Q1724.77 107.19 1720.32 111.88Q1715.88 116.56 1715.88 125.16L1715.88 125.16L1715.88 190Z" fill="#FFFFFF"/>
  <circle cx="1413.44" cy="178.00" r="22" fill="#76F0EB"/>
</svg>
